# xmcd
#
# Track frame offsets: 
#        150
#        3567
#        8354
#        18113
#        23243
#        37939
#        47318
#        58022
#        69656
#        78428
#        81060
#        112263
#        122056
#        133829
#        145326
#        155095
#        168197
#        182799
#        188140
#        189731
#        198662
#        205312
#        213390
#        217908
#        227371
#        232258
#        238814
#        243178
#        247444
#        253248
#        255147
#        257667
#        265706
#        270981
#        271881
#        274454
#        276349
#        278223
#        289136
#        319571
#
# Disc length: 4439 seconds
#
# Revision: 0
# Processed by: cddbd v1.5.2PL0 Copyright (c) Steve Scherf et al.
# Submitted via: ExactAudioCopy v0.95b3
#
DISCID=4f115528
DTITLE=The Beatles - Soul Sessions
DYEAR=1990
DGENRE=Blues
TTITLE0=We Can Work It Out - home demo (partial)
TTITLE1=Michelle - home tape, instrumental
TTITLE2=Day Tripper - take 1, RS'82
TTITLE3=Day Tripper - take 2, RS'82
TTITLE4=Day Tripper - take 3, RS'82
TTITLE5=We Can Work It Out - take 1, RS'82
TTITLE6=We Can Work It Out - take 2, rough mix
TTITLE7=We Can Work It Out - S1 onto take 2, RS'82
TTITLE8=12-Bar Original - rehearsal take, RS'82
TTITLE9=12-Bar Original - take 1, RS'82
TTITLE10=12-Bar Original - take 2, RS'82
TTITLE11=Norwegian Wood (This Bird Ha Flown) - take 1, RS'82(a)
TTITLE12=Norwegian Wood (This Bird Ha Flown) - take 2, RS'82
TTITLE13=Norwegian Wood (This Bird Ha Flown) - take 4, RS'82
TTITLE14=Girl - take 2, backing tracks, monitor mix
TTITLE15=I'm Looking Through You - take 1, RS'82(a)
TTITLE16=I'm Looking Through You - take 4, RS'82
TTITLE17=In My Life - take 3, rough mix (partial)
TTITLE18=Run For You Life - take 1, chat only, RS'92
TTITLE19=Run For You Life - take 5, rough mix (partial)
TTITLE20=The "Think for Yourself" vocal overdub session excerpts ("...
TTITLE20=about the good things we can have") Part 1 of 3
TTITLE21=The "Think for Yourself" vocal overdub session excerpts ("...
TTITLE21=about the good things we can have") Part 2 of 3
TTITLE22=The "Think for Yourself" vocal overdub session excerpts ("...
TTITLE22=about the good things we can have") Part 3 of 3
TTITLE23=The "Think for Yourself" vocal overdub session excerpts ("...
TTITLE23=I know your minds made up") Part 1 of 2
TTITLE24=The "Think for Yourself" vocal overdub session excerpts ("...
TTITLE24=I know your minds made up") Part 2 of 2
TTITLE25=The "Think for Yourself" vocal overdub session excerpts ("...
TTITLE25=and you've got time to rectify") Part 1 of 9
TTITLE26=The "Think for Yourself" vocal overdub session excerpts ("...
TTITLE26=and you've got time to rectify") Part 2 of 9
TTITLE27=The "Think for Yourself" vocal overdub session excerpts ("...
TTITLE27=and you've got time to rectify") Part 3 of 9
TTITLE28=The "Think for Yourself" vocal overdub session excerpts ("...
TTITLE28=and you've got time to rectify") Part 4 of 9
TTITLE29=The "Think for Yourself" vocal overdub session excerpts ("...
TTITLE29=and you've got time to rectify") Part 5 of 9
TTITLE30=The "Think for Yourself" vocal overdub session excerpts ("...
TTITLE30=and you've got time to rectify") Part 6 of 9
TTITLE31=The "Think for Yourself" vocal overdub session excerpts ("...
TTITLE31=and you've got time to rectify") Part 7 of 9
TTITLE32=The "Think for Yourself" vocal overdub session excerpts ("...
TTITLE32=and you've got time to rectify") Part 8 of 9
TTITLE33=The "Think for Yourself" vocal overdub session excerpts ("...
TTITLE33=and you've got time to rectify") Part 9 of 9
TTITLE34=The "Think for Yourself" vocal overdub session excerpts ("...
TTITLE34=lukewarm baby got custard face") Part 1 of 4
TTITLE35=The "Think for Yourself" vocal overdub session excerpts ("...
TTITLE35=lukewarm baby got custard face") Part 2 of 4
TTITLE36=The "Think for Yourself" vocal overdub session excerpts ("...
TTITLE36=lukewarm baby got custard face") Part 3 of 4
TTITLE37=The "Think for Yourself" vocal overdub session excerpts ("...
TTITLE37=lukewarm baby got custard face") Part 4 of 4
TTITLE38=12-Bar Original - take 2, RMI
TTITLE39=12-Bar Original - take 2, RS'95
EXTD=
EXTT0=
EXTT1=
EXTT2=
EXTT3=
EXTT4=
EXTT5=
EXTT6=
EXTT7=
EXTT8=
EXTT9=
EXTT10=
EXTT11=
EXTT12=
EXTT13=
EXTT14=
EXTT15=
EXTT16=
EXTT17=
EXTT18=
EXTT19=
EXTT20=
EXTT21=
EXTT22=
EXTT23=
EXTT24=
EXTT25=
EXTT26=
EXTT27=
EXTT28=
EXTT29=
EXTT30=
EXTT31=
EXTT32=
EXTT33=
EXTT34=
EXTT35=
EXTT36=
EXTT37=
EXTT38=
EXTT39=
PLAYORDER=
